<svg width="8" height="13" viewBox="0 0 8 13" fill="none" xmlns="http://www.w3.org/2000/svg">
<path d="M2.70696 0.292919C2.51836 0.110761 2.26576 0.00996641 2.00356 0.0122448C1.74136 0.0145233 1.49055 0.119692 1.30514 0.305101C1.11973 0.490509 1.01456 0.741321 1.01229 1.00352C1.01001 1.26571 1.1108 1.51832 1.29296 1.70692L5.58596 5.99992L1.29296 10.2929C1.19745 10.3852 1.12127 10.4955 1.06886 10.6175C1.01645 10.7395 0.988862 10.8707 0.987709 11.0035C0.986555 11.1363 1.01186 11.268 1.06214 11.3909C1.11242 11.5138 1.18667 11.6254 1.28056 11.7193C1.37446 11.8132 1.48611 11.8875 1.60901 11.9377C1.7319 11.988 1.86358 12.0133 1.99636 12.0122C2.12914 12.011 2.26036 11.9834 2.38236 11.931C2.50437 11.8786 2.61471 11.8024 2.70696 11.7069L7.70696 6.70692C7.89443 6.51939 7.99975 6.26508 7.99975 5.99992C7.99975 5.73475 7.89443 5.48045 7.70696 5.29292L2.70696 0.292919Z" fill="#EE1C25"/>
</svg>
