<svg width="24" height="24" viewBox="0 0 24 24" fill="none" xmlns="http://www.w3.org/2000/svg">
<path d="M10.2188 10.7812C10.7188 11.25 11.3125 11.4844 12 11.4844C12.6875 11.4844 13.2656 11.25 13.7344 10.7812C14.2344 10.2812 14.4844 9.6875 14.4844 9C14.4844 8.3125 14.2344 7.73438 13.7344 7.26562C13.2656 6.76562 12.6875 6.51562 12 6.51562C11.3125 6.51562 10.7188 6.76562 10.2188 7.26562C9.75 7.73438 9.51562 8.3125 9.51562 9C9.51562 9.6875 9.75 10.2812 10.2188 10.7812ZM7.03125 4.07812C8.40625 2.70312 10.0625 2.01562 12 2.01562C13.9375 2.01562 15.5781 2.70312 16.9219 4.07812C18.2969 5.42188 18.9844 7.0625 18.9844 9C18.9844 9.96875 18.7344 11.0781 18.2344 12.3281C17.7656 13.5781 17.1875 14.75 16.5 15.8438C15.8125 16.9375 15.125 17.9688 14.4375 18.9375C13.7812 19.875 13.2188 20.625 12.75 21.1875L12 21.9844C11.8125 21.7656 11.5625 21.4844 11.25 21.1406C10.9375 20.7656 10.375 20.0469 9.5625 18.9844C8.75 17.8906 8.03125 16.8438 7.40625 15.8438C6.8125 14.8125 6.26562 13.6562 5.76562 12.375C5.26562 11.0938 5.01562 9.96875 5.01562 9C5.01562 7.0625 5.6875 5.42188 7.03125 4.07812Z" fill="#EE1C25"/>
</svg>
