<svg width="16" height="10" viewBox="0 0 16 10" fill="none" xmlns="http://www.w3.org/2000/svg">
<path d="M2.01475 9.54162H14.2357L15.5568 3.59471C15.5862 3.46278 15.5753 3.3251 15.5257 3.19938C15.4761 3.07367 15.39 2.96567 15.2785 2.88928C15.1671 2.8129 15.0353 2.77163 14.9001 2.77079C14.765 2.76994 14.6327 2.80956 14.5202 2.88454L11.0957 5.16732L8.73057 0.436712C8.67433 0.324263 8.58789 0.229694 8.48093 0.163601C8.37398 0.0975075 8.25073 0.0625 8.125 0.0625C7.99927 0.0625 7.87603 0.0975075 7.76907 0.163601C7.66212 0.229694 7.57568 0.324263 7.51944 0.436712L5.1543 5.16732L1.7297 2.88454C1.61726 2.80959 1.48496 2.76999 1.34983 2.77085C1.21471 2.77171 1.08293 2.81299 0.971452 2.88937C0.859977 2.96574 0.773905 3.07373 0.724311 3.19943C0.674717 3.32513 0.663871 3.4628 0.693166 3.59471L2.01475 9.54162Z" fill="#EE1C25"/>
</svg>
