<svg width="22" height="20" viewBox="0 0 22 20" fill="none" xmlns="http://www.w3.org/2000/svg">
<path d="M2.81169 2.6044C2.96669 1.6744 3.9742 0.615234 5.3442 0.615234C6.63586 0.615234 7.6442 1.54523 7.92836 2.47523L10.9775 12.7069H11.0292L14.0767 2.47523C14.3609 1.54523 15.3684 0.615234 16.6609 0.615234C18.0292 0.615234 19.0375 1.6744 19.1934 2.6044L21.5959 17.0227C21.6217 17.1777 21.6217 17.3327 21.6217 17.4611C21.6217 18.5986 20.795 19.3211 19.7617 19.3211C18.4434 19.3211 17.9275 18.7269 17.7467 17.5127L16.2217 6.9969H16.17L13.0692 17.8227C12.8884 18.4427 12.3984 19.3211 11.0025 19.3211C9.60753 19.3211 9.1167 18.4427 8.93586 17.8227L5.83503 6.9969H5.78336L4.25836 17.5136C4.07753 18.7277 3.56086 19.3219 2.24336 19.3219C1.21003 19.3219 0.383362 18.5994 0.383362 17.4619C0.383362 17.3336 0.383362 17.1777 0.409195 17.0236L2.81169 2.6044Z" fill="white"/>
</svg>
