<svg width="29" height="30" viewBox="0 0 29 30" fill="none" xmlns="http://www.w3.org/2000/svg">
<g clip-path="url(#clip0)">
<path d="M24.4688 21.7516C24.4688 27.2344 20.0281 27.2344 14.5 27.2344C8.97188 27.2344 4.53125 27.2344 4.53125 21.7516C4.53125 16.2688 9.01719 7.29688 14.5 7.29688C19.9828 7.29688 24.4688 16.2234 24.4688 21.7516Z" fill="#DBB471"/>
<path opacity="0.5" d="M24.4687 21.7516C24.4687 19.8938 23.9702 17.6281 23.064 15.4531C23.2452 16.8578 22.8827 19.35 18.578 20.3016C12.4608 21.6156 15.6327 23.3375 13.2312 23.5641C11.1921 23.7453 5.75459 22.9297 4.66709 19.8484C4.57647 20.5281 4.48584 21.1625 4.48584 21.7969C4.53115 27.2344 9.01709 27.2344 14.4999 27.2344C19.9827 27.2344 24.4687 27.2344 24.4687 21.7516Z" fill="#89664C"/>
<path d="M17.1733 19.1234C16.9921 18.2171 16.2218 17.9453 15.4061 17.9V16.6312C15.6327 16.7218 15.9046 16.8578 16.0858 16.9937C16.4483 17.2203 16.8108 16.6312 16.4483 16.4046C16.1311 16.2234 15.7686 16.0421 15.4061 15.9062V14.4109C15.4061 13.9578 14.7265 13.9578 14.7265 14.4109V15.725C14.364 15.6796 14.0015 15.6796 13.639 15.725C13.5936 15.4078 13.503 15.0906 13.4124 14.7734C13.3218 14.3203 12.6421 14.5015 12.778 14.9546C12.8686 15.2718 12.914 15.589 13.0046 15.9062C12.9593 15.9062 12.9593 15.9062 12.914 15.9515C12.0077 16.314 11.4186 17.2203 12.0983 18.0812C12.4155 18.489 12.8233 18.625 13.2765 18.7156C13.3218 19.3046 13.3218 19.8937 13.3218 20.4828C13.0046 20.3015 12.7327 20.0296 12.5061 19.8031C12.189 19.4859 11.7358 19.9843 12.0077 20.3015C12.4155 20.7546 12.8686 21.0718 13.3218 21.2984C13.3218 21.7968 13.3671 22.2953 13.4124 22.7937C13.4577 23.2468 14.1374 23.2468 14.0921 22.7937C14.0468 22.3406 14.0015 21.9328 14.0015 21.4796C14.2733 21.525 14.5452 21.525 14.8171 21.525C14.8624 21.9781 14.9077 22.4312 14.953 22.9296C14.9983 23.3828 15.678 23.3828 15.6327 22.9296C15.5874 22.4312 15.5421 21.9328 15.4968 21.389C16.4936 21.0265 17.3999 20.2562 17.1733 19.1234ZM14.7265 16.4046V17.9C14.4999 17.9 14.3186 17.9453 14.1374 17.9453H13.9108L13.7749 16.314C14.0921 16.314 14.4093 16.3593 14.7265 16.4046ZM13.0952 17.8546C12.914 17.8093 12.7327 17.6734 12.5515 17.5374C12.1436 17.1296 12.7327 16.7671 13.0952 16.5859C13.1405 17.039 13.1858 17.4468 13.2311 17.9C13.1858 17.9 13.1405 17.9 13.0952 17.8546ZM14.5905 20.7546C14.364 20.8 14.1827 20.7546 14.0015 20.7093C13.9561 20.0296 13.9561 19.35 13.9561 18.625C14.228 18.625 14.4999 18.5796 14.7718 18.5796C14.7718 19.3046 14.8171 19.9843 14.8171 20.7093C14.7265 20.7546 14.6811 20.7546 14.5905 20.7546ZM16.0858 20.2562C15.9046 20.3921 15.678 20.4828 15.4968 20.5734C15.4515 19.8937 15.4515 19.2593 15.4515 18.5796H15.678C16.539 18.7609 16.7655 19.7124 16.0858 20.2562Z" fill="#89664C"/>
<path d="M15.4062 25.4219H14.364V27.2344L18.5781 29.5L28.0937 26.5547V24.9688L24.6046 22.9297L15.4062 25.4219Z" fill="#699635"/>
<path d="M14.5 24.3797C14.5 24.3797 15.5875 26.1469 18.6688 27.6875C18.6688 27.6875 23.4719 27.4609 28.0938 24.3797C28.0938 24.3797 25.4203 23.0656 24.65 21.3438C24.65 21.3438 22.8375 23.8813 14.5 24.3797Z" fill="#83BF4F"/>
<path d="M12.461 25.3766L13.4579 25.3313L13.5938 27.0079L9.65166 29.5001L0.181348 27.461L0.0454102 25.9657L3.2626 23.7454L12.461 25.3766Z" fill="#699635"/>
<path d="M13.2313 24.3344C13.2313 24.3344 12.2797 26.1016 9.425 27.7781C9.425 27.7781 4.75781 27.9141 0 25.4219C0 25.4219 2.5375 23.9719 3.12656 22.25C3.12656 22.25 5.12031 24.5156 13.2313 24.3344Z" fill="#83BF4F"/>
<path d="M10.9657 24.8329C10.9657 24.8329 10.8297 25.1954 11.4641 25.2407L9.78755 26.6454C9.78755 26.6454 8.79067 26.5547 8.56411 27.2344C8.56411 27.2344 4.48599 26.7813 1.85786 25.6032C1.85786 25.6032 2.40161 25.1954 1.72192 24.9235C1.72192 24.9235 2.49224 24.3797 2.67349 23.8813C2.67349 23.8813 3.39849 23.9719 3.62505 23.4282C3.71567 23.3829 6.43442 25.0141 10.9657 24.8329V24.8329Z" stroke="#699635" stroke-width="0.6875" stroke-miterlimit="10"/>
<path d="M3.9874 25.4672C4.46289 25.4672 4.84834 25.2035 4.84834 24.8781C4.84834 24.5528 4.46289 24.2891 3.9874 24.2891C3.51192 24.2891 3.12646 24.5528 3.12646 24.8781C3.12646 25.2035 3.51192 25.4672 3.9874 25.4672Z" fill="#699635"/>
<path d="M8.60942 24.1534C8.60942 24.1534 7.56724 25.5128 5.30161 27.3706L5.43755 28.594L3.85161 28.2315L3.76099 26.9175C3.76099 26.9175 6.07192 24.7878 6.57036 23.7456C6.52505 23.7456 7.34067 24.0175 8.60942 24.1534Z" fill="#F9F3D9"/>
<path d="M19.0767 23.8361C19.0767 23.8361 19.4845 24.9236 22.5657 26.9173V28.2314L24.3329 27.6876V26.3283C24.3329 26.3283 22.2032 24.833 20.9345 23.3376L19.0767 23.8361Z" fill="#F9F3D9"/>
<path d="M16.4938 22.3858L15.4969 22.3405L15.4062 24.1983L19.4391 26.7811L28.9094 24.1983L28.9547 22.567L25.6469 20.2561L16.4938 22.3858Z" fill="#699635"/>
<path d="M15.6782 21.2531C15.6782 21.2531 16.6751 23.1562 19.6204 24.8781C19.6204 24.8781 24.3329 24.8781 29.0001 21.9781C29.0001 21.9781 26.4173 20.4828 25.7829 18.625C25.7829 18.625 23.8345 21.1625 15.6782 21.2531Z" fill="#83BF4F"/>
<path d="M17.7172 21.7514C17.7172 21.7514 17.9438 22.1139 17.2188 22.2499L19.1219 23.7452C19.1219 23.7452 20.2094 23.4733 20.5719 24.1077C20.5719 24.1077 25.1031 23.292 27.1875 22.2045C27.1875 22.2045 26.5078 21.8874 27.1875 21.4795C27.1875 21.4795 26.3719 20.7999 26.0547 20.3467C26.0547 20.3467 25.2844 20.5733 24.8766 20.0295C24.8766 20.0749 23.2453 21.5249 17.7172 21.7514V21.7514Z" stroke="#699635" stroke-width="0.6875" stroke-miterlimit="10"/>
<path d="M21.2063 22.8844C21.025 23.111 20.436 23.2016 19.9375 23.0657C19.4391 22.9297 19.2125 22.6126 19.3938 22.386C19.575 22.1594 20.1641 22.0688 20.6625 22.2047C21.161 22.3407 21.3875 22.6126 21.2063 22.8844Z" fill="#699635"/>
<path d="M20.3 20.8908C20.3 20.8908 21.3875 22.3408 23.6985 24.2892L23.6532 25.6486L25.2391 25.1955L25.2844 23.7455C25.2844 23.7455 22.9282 21.4798 22.3391 20.3923C22.3844 20.3923 21.6141 20.7095 20.3 20.8908Z" fill="#F9F3D9"/>
<path d="M20.8438 1.40625C20.8438 4.17031 17.2641 8.65625 14.5 8.65625C11.7359 8.65625 8.15625 4.62344 8.15625 1.85938C8.15625 -0.904687 8.56406 1.85938 11.3281 1.85938C11.7359 1.85938 13.6391 0.5 14.5 0.5C15.0891 0.5 16.7656 1.85938 17.6719 1.85938C20.0734 1.85938 20.8438 -0.678125 20.8438 1.40625Z" fill="#DBB471"/>
<path d="M13.6844 6.52652C13.4125 6.70777 12.0984 6.57184 11.6906 6.88902C11.1469 7.29684 11.9172 8.2484 11.3734 8.83746C10.2859 9.92496 9.42499 11.1484 9.69687 11.8281C10.15 13.0062 11.0109 9.65308 11.7812 10.9218C12.5516 12.1906 12.4156 10.0609 13.5937 11.1484C14.7719 12.2359 13.775 9.19996 14.9078 10.514C16.0406 11.8281 16.0859 13.3234 16.9016 13.3234C17.8531 13.3234 15.9047 9.74371 17.1734 10.6046C18.4422 11.4656 19.8469 11.1484 18.5781 9.83434C18.1703 9.42652 17.6266 8.70152 16.9922 8.06715C16.7656 7.84059 16.9469 6.66246 16.7203 6.48121C16.4484 6.25465 15.7687 6.97965 15.4969 6.84371C14.9531 6.57183 15.1344 7.07027 14.3187 7.20621C13.775 7.38746 14.2281 6.16402 13.6844 6.52652Z" fill="#89664C"/>
<path d="M8.47363 9.20004C10.2408 7.52348 13.458 8.47504 15.3611 9.29066C17.2189 10.1063 18.3518 7.52348 17.1736 6.20941C16.4939 5.4391 15.4064 6.34535 14.9986 6.8891C14.5455 7.43285 14.183 8.02191 13.6846 8.56566C12.9596 9.38129 11.1924 8.7016 11.7361 7.56879C12.3252 6.39066 14.8174 7.75004 15.633 7.9766C17.2189 8.42973 18.8955 8.61098 20.4814 8.02191C21.0252 7.84066 20.7986 6.93441 20.2549 7.16098C18.4877 7.79535 16.7205 7.38754 15.0439 6.84379C14.183 6.57191 12.8236 5.84691 11.9174 6.25473C9.33457 7.47816 11.7361 10.9672 13.9111 9.60785C14.4096 9.29066 14.7268 8.79223 15.0893 8.3391C15.3158 8.06723 16.4486 6.34535 16.7205 7.20629C16.8564 7.65941 16.7205 8.47504 16.2221 8.61098C15.9049 8.74691 15.2705 8.29379 14.9533 8.20316C14.3643 7.9766 13.7752 7.79535 13.1408 7.65941C11.4643 7.29691 9.19863 7.38754 7.88457 8.61098C7.43144 8.97348 8.06582 9.60785 8.47363 9.20004Z" fill="#E8E8E8"/>
<path d="M20.3 0.726562C19.8469 1.08906 19.0312 1.85938 17.6719 1.85938C16.7656 1.85938 15.0891 0.5 14.5 0.5C13.6391 0.5 11.7359 1.85938 11.3281 1.85938C9.83281 1.85938 9.01719 1.08906 8.60938 0.771875C8.60938 0.771875 9.10781 2.81094 10.6484 3.85313C11.7812 4.57812 11.6453 3.71719 12.2344 2.90156C12.8234 2.08594 13.2312 1.67812 14.2734 3.71719C14.8172 4.85 15.8594 0.635937 16.675 1.99531C18.1703 4.4875 18.7141 3.12813 20.3 0.726562Z" fill="#89664C"/>
<path d="M23.7438 24.2437L23.6985 25.6031L25.2844 25.15L25.3297 23.7C25.3297 23.7453 24.3782 24.1078 23.7438 24.2437Z" fill="#DBB471"/>
<path d="M22.5657 26.9624V28.2765L24.3329 27.7327V26.3733C24.2876 26.328 23.8344 26.5999 22.5657 26.9624Z" fill="#DBB471"/>
<path d="M5.30169 27.3248L5.43763 28.5936L3.85169 28.2311L3.76107 26.917C3.71576 26.917 4.35013 27.1436 5.30169 27.3248Z" fill="#DBB471"/>
</g>
<defs>
<clipPath id="clip0">
<rect width="29" height="29" fill="white" transform="translate(0 0.5)"/>
</clipPath>
</defs>
</svg>
