<svg width="24" height="24" viewBox="0 0 24 24" fill="none" xmlns="http://www.w3.org/2000/svg">
<path d="M17.29 9.31002C17.1975 9.21732 17.0876 9.14377 16.9666 9.09359C16.8456 9.04341 16.7159 9.01758 16.585 9.01758C16.454 9.01758 16.3243 9.04341 16.2034 9.09359C16.0824 9.14377 15.9725 9.21732 15.88 9.31002L12 13.19L8.11998 9.31002C7.933 9.12304 7.67941 9.018 7.41498 9.018C7.15055 9.018 6.89695 9.12304 6.70998 9.31002C6.523 9.497 6.41796 9.7506 6.41796 10.015C6.41796 10.2794 6.523 10.533 6.70998 10.72L11.3 15.31C11.3925 15.4027 11.5024 15.4763 11.6234 15.5265C11.7443 15.5766 11.874 15.6025 12.005 15.6025C12.1359 15.6025 12.2656 15.5766 12.3866 15.5265C12.5076 15.4763 12.6175 15.4027 12.71 15.31L17.3 10.72C17.68 10.34 17.68 9.70002 17.29 9.31002Z" fill="#212529"/>
</svg>
